<svg width="590" height="590" viewBox="0 0 590 590" fill="none" xmlns="http://www.w3.org/2000/svg">
<g filter="url(#filter0_d_0_8556)">
<circle cx="295" cy="291" r="291" fill="#ECAD7A"/>
<mask id="mask0_0_8556" style="mask-type:luminance" maskUnits="userSpaceOnUse" x="4" y="0" width="582" height="582">
<circle cx="295" cy="291" r="291" fill="white"/>
</mask>
<g mask="url(#mask0_0_8556)">
<path fill-rule="evenodd" clip-rule="evenodd" d="M42 294C48.6274 294 54 299.373 54 306C54 312.627 48.6274 318 42 318H-114C-120.627 318 -126 312.627 -126 306C-126 299.373 -120.627 294 -114 294H42ZM262 294C268.627 294 274 299.373 274 306C274 312.627 268.627 318 262 318H184L184 318.01C177.605 318.272 172.5 323.54 172.5 330C172.5 336.46 177.605 341.728 184 341.99L184 342H344C350.627 342 356 347.373 356 354C356 360.627 350.627 366 344 366H87C80.3726 366 75 360.627 75 354C75 347.373 80.3726 342 87 342H136C142.627 342 148 336.627 148 330C148 323.373 142.627 318 136 318H106C99.3726 318 94 312.627 94 306C94 299.373 99.3726 294 106 294H262ZM57 390C63.6274 390 69 395.373 69 402C69 408.627 63.6274 414 57 414H-16C-22.6274 414 -28 408.627 -28 402C-28 395.373 -22.6274 390 -16 390H57ZM344 390C350.627 390 356 395.373 356 402C356 408.627 350.627 414 344 414H271C264.373 414 259 408.627 259 402C259 395.373 264.373 390 271 390H344ZM608 402C608 395.373 602.627 390 596 390H430C423.373 390 418 395.373 418 402C418 408.627 423.373 414 430 414H596C602.627 414 608 408.627 608 402ZM418 318C424.627 318 430 323.373 430 330C430 336.627 424.627 342 418 342H409C402.373 342 397 347.373 397 354C397 360.627 402.373 366 409 366H666C672.627 366 678 360.627 678 354C678 347.373 672.627 342 666 342H466L466 341.99C459.605 341.728 454.5 336.46 454.5 330C454.5 323.54 459.605 318.272 466 318.01L466 318H490C496.627 318 502 312.627 502 306C502 299.373 496.627 294 490 294H334C327.373 294 322 299.373 322 306C322 312.627 327.373 318 334 318H418ZM716 306C716 299.373 710.627 294 704 294H548C541.373 294 536 299.373 536 306C536 312.627 541.373 318 548 318H704C710.627 318 716 312.627 716 306Z" fill="#F0D29F"/>
</g>
<mask id="mask1_0_8556" style="mask-type:luminance" maskUnits="userSpaceOnUse" x="4" y="0" width="582" height="582">
<circle cx="295" cy="291" r="291" fill="white"/>
</mask>
<g mask="url(#mask1_0_8556)">
<path d="M163 402C163 395.373 157.627 390 151 390H122C115.373 390 110 384.627 110 378C110 371.373 115.373 366 122 366H223C229.627 366 235 371.373 235 378C235 384.627 229.627 390 223 390H220L219.999 390.01C213.604 390.273 208.5 395.54 208.5 402C208.5 408.46 213.604 413.727 219.999 413.99L220 414H223C229.627 414 235 419.373 235 426C235 432.627 229.627 438 223 438H147C140.373 438 135 432.627 135 426C135 419.373 140.373 414 147 414H151C157.627 414 163 408.627 163 402Z" fill="#D86534"/>
</g>
<mask id="mask2_0_8556" style="mask-type:luminance" maskUnits="userSpaceOnUse" x="4" y="0" width="582" height="582">
<circle cx="295" cy="291" r="291" fill="white"/>
</mask>
<g mask="url(#mask2_0_8556)">
<path fill-rule="evenodd" clip-rule="evenodd" d="M470 54C463.373 54 458 59.3726 458 66C458 72.6274 463.373 78 470 78H626C632.627 78 638 72.6274 638 66C638 59.3726 632.627 54 626 54H470ZM250 54C243.373 54 238 59.3726 238 66C238 72.6274 243.373 78 250 78H328L328 78.0102C334.395 78.2721 339.5 83.5399 339.5 90C339.5 96.4601 334.395 101.728 328 101.99L328 102H168C161.373 102 156 107.373 156 114C156 120.627 161.373 126 168 126H425C431.627 126 437 120.627 437 114C437 107.373 431.627 102 425 102H376C369.373 102 364 96.6274 364 90C364 83.3726 369.373 78 376 78H406C412.627 78 418 72.6274 418 66C418 59.3726 412.627 54 406 54H250ZM455 150C448.373 150 443 155.373 443 162C443 168.627 448.373 174 455 174H528C534.627 174 540 168.627 540 162C540 155.373 534.627 150 528 150H455ZM168 150C161.373 150 156 155.373 156 162C156 168.627 161.373 174 168 174H241C247.627 174 253 168.627 253 162C253 155.373 247.627 150 241 150H168ZM-96 162C-96 155.373 -90.6274 150 -84 150H82C88.6274 150 94 155.373 94 162C94 168.627 88.6274 174 82 174H-84C-90.6274 174 -96 168.627 -96 162ZM94 78C87.3726 78 82 83.3726 82 90C82 96.6274 87.3726 102 94 102H103C109.627 102 115 107.373 115 114C115 120.627 109.627 126 103 126H-154C-160.627 126 -166 120.627 -166 114C-166 107.373 -160.627 102 -154 102H46L45.9996 101.99C52.3953 101.728 57.5 96.4601 57.5 90C57.5 83.5399 52.3953 78.2721 45.9996 78.0102L46 78H22C15.3726 78 10 72.6274 10 66C10 59.3726 15.3726 54 22 54H178C184.627 54 190 59.3726 190 66C190 72.6274 184.627 78 178 78H94ZM-204 66C-204 59.3726 -198.627 54 -192 54H-36C-29.3726 54 -24 59.3726 -24 66C-24 72.6274 -29.3726 78 -36 78H-192C-198.627 78 -204 72.6274 -204 66Z" fill="#DC8E61"/>
</g>
<mask id="mask3_0_8556" style="mask-type:luminance" maskUnits="userSpaceOnUse" x="4" y="0" width="582" height="582">
<circle cx="295" cy="291" r="291" fill="white"/>
</mask>
<g mask="url(#mask3_0_8556)">
<path fill-rule="evenodd" clip-rule="evenodd" d="M628 438C621.373 438 616 443.373 616 450C616 456.627 621.373 462 628 462H784C790.627 462 796 456.627 796 450C796 443.373 790.627 438 784 438H628ZM408 438C401.373 438 396 443.373 396 450C396 456.627 401.373 462 408 462H486L486 462.01C492.395 462.272 497.5 467.54 497.5 474C497.5 480.46 492.395 485.728 486 485.99L486 486H326C319.373 486 314 491.373 314 498C314 504.627 319.373 510 326 510H583C589.627 510 595 504.627 595 498C595 491.373 589.627 486 583 486H534C527.373 486 522 480.627 522 474C522 467.373 527.373 462 534 462H564C570.627 462 576 456.627 576 450C576 443.373 570.627 438 564 438H408ZM613 534C606.373 534 601 539.373 601 546C601 552.627 606.373 558 613 558H686C692.627 558 698 552.627 698 546C698 539.373 692.627 534 686 534H613ZM326 534C319.373 534 314 539.373 314 546C314 552.627 319.373 558 326 558H399C405.627 558 411 552.627 411 546C411 539.373 405.627 534 399 534H326ZM62 546C62 539.373 67.3726 534 74 534H240C246.627 534 252 539.373 252 546C252 552.627 246.627 558 240 558H74C67.3726 558 62 552.627 62 546ZM252 462C245.373 462 240 467.373 240 474C240 480.627 245.373 486 252 486H261C267.627 486 273 491.373 273 498C273 504.627 267.627 510 261 510H4C-2.62744 510 -8 504.627 -8 498C-8 491.373 -2.62744 486 4 486H204L204 485.99C210.395 485.728 215.5 480.46 215.5 474C215.5 467.54 210.395 462.272 204 462.01L204 462H180C173.373 462 168 456.627 168 450C168 443.373 173.373 438 180 438H336C342.627 438 348 443.373 348 450C348 456.627 342.627 462 336 462H252ZM-46 450C-46 443.373 -40.6274 438 -34 438H122C128.627 438 134 443.373 134 450C134 456.627 128.627 462 122 462H-34C-40.6274 462 -46 456.627 -46 450Z" fill="#D89D6D"/>
</g>
<mask id="mask4_0_8556" style="mask-type:luminance" maskUnits="userSpaceOnUse" x="4" y="0" width="582" height="582">
<circle cx="295" cy="291" r="291" fill="white"/>
</mask>
<g mask="url(#mask4_0_8556)">
<path fill-rule="evenodd" clip-rule="evenodd" d="M181 222C187.627 222 193 227.373 193 234C193 240.627 187.627 246 181 246H171C164.373 246 159 251.373 159 258C159 264.627 164.373 270 171 270H260C266.627 270 272 264.627 272 258C272 251.373 266.627 246 260 246H250L249.999 245.99C243.604 245.727 238.5 240.46 238.5 234C238.5 227.54 243.604 222.273 249.999 222.01L250 222H315C321.627 222 327 216.627 327 210C327 203.373 321.627 198 315 198H116C109.373 198 104 203.373 104 210C104 216.627 109.373 222 116 222H181ZM135 258C135 251.373 129.627 246 123 246H61C54.3726 246 49 251.373 49 258C49 264.627 54.3726 270 61 270H123C129.627 270 135 264.627 135 258ZM13 246C19.6274 246 25 251.373 25 258C25 264.627 19.6274 270 13 270H-15C-21.6274 270 -27 264.627 -27 258C-27 251.373 -21.6274 246 -15 246H13ZM488 258C488 251.373 482.627 246 476 246H308C301.373 246 296 251.373 296 258C296 264.627 301.373 270 308 270H476C482.627 270 488 264.627 488 258ZM552 246C558.627 246 564 251.373 564 258C564 264.627 558.627 270 552 270H524C517.373 270 512 264.627 512 258C512 251.373 517.373 246 524 246H552ZM517 210C517 203.373 511.627 198 505 198H363C356.373 198 351 203.373 351 210C351 216.627 356.373 222 363 222H505C511.627 222 517 216.627 517 210ZM603 198C609.627 198 615 203.373 615 210C615 216.627 609.627 222 603 222H553C546.373 222 541 216.627 541 210C541 203.373 546.373 198 553 198H603ZM56 210C56 203.373 50.6274 198 44 198H16C9.37258 198 4 203.373 4 210C4 216.627 9.37258 222 16 222H44C50.6274 222 56 216.627 56 210Z" fill="#D89D6D"/>
</g>
<mask id="mask5_0_8556" style="mask-type:luminance" maskUnits="userSpaceOnUse" x="4" y="0" width="582" height="582">
<circle cx="295" cy="291" r="291" fill="white"/>
</mask>
<g mask="url(#mask5_0_8556)">
<rect opacity="0.0775757" x="295" width="292" height="582" fill="black"/>
</g>
</g>
<defs>
<filter id="filter0_d_0_8556" x="0" y="0" width="590" height="590" filterUnits="userSpaceOnUse" color-interpolation-filters="sRGB">
<feFlood flood-opacity="0" result="BackgroundImageFix"/>
<feColorMatrix in="SourceAlpha" type="matrix" values="0 0 0 0 0 0 0 0 0 0 0 0 0 0 0 0 0 0 127 0" result="hardAlpha"/>
<feOffset dy="4"/>
<feGaussianBlur stdDeviation="2"/>
<feComposite in2="hardAlpha" operator="out"/>
<feColorMatrix type="matrix" values="0 0 0 0 0 0 0 0 0 0 0 0 0 0 0 0 0 0 0.25 0"/>
<feBlend mode="normal" in2="BackgroundImageFix" result="effect1_dropShadow_0_8556"/>
<feBlend mode="normal" in="SourceGraphic" in2="effect1_dropShadow_0_8556" result="shape"/>
</filter>
</defs>
</svg>
